<?xml version="1.0" encoding="UTF-8" standalone="no"?>
<!-- Generator: Adobe Illustrator 19.0.0, SVG Export Plug-In . SVG Version: 6.00 Build 0)  -->

<svg
   xmlns:dc="http://purl.org/dc/elements/1.1/"
   xmlns:cc="http://creativecommons.org/ns#"
   xmlns:rdf="http://www.w3.org/1999/02/22-rdf-syntax-ns#"
   xmlns:svg="http://www.w3.org/2000/svg"
   xmlns="http://www.w3.org/2000/svg"
   xmlns:sodipodi="http://sodipodi.sourceforge.net/DTD/sodipodi-0.dtd"
   xmlns:inkscape="http://www.inkscape.org/namespaces/inkscape"
   version="1.1"
   id="Layer_1"
   x="0px"
   y="0px"
   viewBox="0 0 532.41853 550.31764"
   xml:space="preserve"
   sodipodi:docname="disabled.svg"
   inkscape:version="0.92.1 r15371"
   width="532.41852"
   height="550.31763"><metadata
     id="metadata4550"><rdf:RDF><cc:Work
         rdf:about=""><dc:format>image/svg+xml</dc:format><dc:type
           rdf:resource="http://purl.org/dc/dcmitype/StillImage" /><dc:title></dc:title></cc:Work></rdf:RDF></metadata><defs
     id="defs4548" /><sodipodi:namedview
     pagecolor="#ffffff"
     bordercolor="#666666"
     borderopacity="1"
     objecttolerance="10"
     gridtolerance="10"
     guidetolerance="10"
     inkscape:pageopacity="0"
     inkscape:pageshadow="2"
     inkscape:window-width="1366"
     inkscape:window-height="705"
     id="namedview4546"
     showgrid="false"
     inkscape:zoom="0.5253927"
     inkscape:cx="534.2623"
     inkscape:cy="227.21989"
     inkscape:window-x="-8"
     inkscape:window-y="-8"
     inkscape:window-maximized="1"
     inkscape:current-layer="Layer_1"
     fit-margin-top="0"
     fit-margin-left="0"
     fit-margin-right="0"
     fit-margin-bottom="0" /><path
     style="opacity:1;fill:#fece8b;fill-opacity:1;fill-rule:evenodd;stroke:#ae7941;stroke-width:41.68204117;stroke-linecap:round;stroke-linejoin:round;stroke-miterlimit:4;stroke-dasharray:none;stroke-dashoffset:0;stroke-opacity:1;paint-order:stroke fill markers"
     d="m 64.11822,20.841021 h 404.18206 c 23.97557,0 43.2772,19.46954 43.2772,43.65367 V 485.82294 c 0,24.18414 -19.30163,43.65367 -43.2772,43.65367 H 64.11822 c -23.97557,0 -43.277199,-19.46953 -43.277199,-43.65367 V 64.494691 c 0,-24.18413 19.301629,-43.65367 43.277199,-43.65367 z"
     id="rect6632"
     inkscape:connector-curvature="0" /><g
     id="g4515"
     transform="translate(11.16193,12.498136)" /><g
     id="g4517"
     transform="translate(11.16193,12.498136)" /><g
     id="g4519"
     transform="translate(11.16193,12.498136)" /><g
     id="g4521"
     transform="translate(11.16193,12.498136)" /><g
     id="g4523"
     transform="translate(11.16193,12.498136)" /><g
     id="g4525"
     transform="translate(11.16193,12.498136)" /><g
     id="g4527"
     transform="translate(11.16193,12.498136)" /><g
     id="g4529"
     transform="translate(11.16193,12.498136)" /><g
     id="g4531"
     transform="translate(11.16193,12.498136)" /><g
     id="g4533"
     transform="translate(11.16193,12.498136)" /><g
     id="g4535"
     transform="translate(11.16193,12.498136)" /><g
     id="g4537"
     transform="translate(11.16193,12.498136)" /><g
     id="g4539"
     transform="translate(11.16193,12.498136)" /><g
     id="g4541"
     transform="translate(11.16193,12.498136)" /><g
     id="g4543"
     transform="translate(11.16193,12.498136)" /><g
     id="g6628"
     transform="matrix(1.7251907,0,0,1.7251907,-173.89263,-31.967056)"><path
       id="path4495"
       d="m 350.796,151.864 h -33.859 c -4.629,0 -8.379,-3.751 -8.379,-8.379 0,-4.628 3.751,-8.379 8.379,-8.379 h 33.859 c 4.629,0 8.379,3.752 8.379,8.379 0,4.627 -3.752,8.379 -8.379,8.379 z"
       style="fill:#cf9945;fill-opacity:1"
       inkscape:connector-curvature="0" /><path
       inkscape:connector-curvature="0"
       id="path4497"
       d="m 349.691,80.928 c -4.629,0 -8.379,3.751 -8.379,8.379 0,4.106 -3.34,7.445 -7.445,7.445 -4.106,0 -7.445,-3.34 -7.445,-7.445 0,-4.629 -3.752,-8.379 -8.379,-8.379 -4.629,0 -8.379,3.751 -8.379,8.379 0,13.346 10.859,24.204 24.204,24.204 13.345,0 24.204,-10.859 24.204,-24.204 -0.002,-4.627 -3.752,-8.379 -8.381,-8.379 z"
       style="fill:#515151;fill-opacity:1" /><path
       id="path4499"
       d="M 195.059,151.864 H 161.2 c -4.629,0 -8.379,-3.751 -8.379,-8.379 0,-4.628 3.751,-8.379 8.379,-8.379 h 33.859 c 4.629,0 8.379,3.752 8.379,8.379 0,4.627 -3.75,8.379 -8.379,8.379 z"
       style="fill:#cf9945;fill-opacity:1"
       inkscape:connector-curvature="0" /><path
       inkscape:connector-curvature="0"
       id="path4501"
       d="m 193.955,80.928 c -4.629,0 -8.379,3.751 -8.379,8.379 0,4.106 -3.34,7.445 -7.445,7.445 -4.106,0 -7.445,-3.34 -7.445,-7.445 0,-4.629 -3.751,-8.379 -8.379,-8.379 -4.629,0 -8.379,3.751 -8.379,8.379 0,13.346 10.859,24.204 24.204,24.204 13.346,0 24.204,-10.858 24.204,-24.204 -0.001,-4.627 -3.753,-8.379 -8.381,-8.379 z"
       style="fill:#515151;fill-opacity:1" /><path
       sodipodi:nodetypes="cc"
       inkscape:connector-curvature="0"
       id="path4595"
       d="M 240.23661,130.10925 H 270.855"
       style="fill:none;fill-rule:evenodd;stroke:#515151;stroke-width:15.11811066;stroke-linecap:round;stroke-linejoin:miter;stroke-miterlimit:4;stroke-dasharray:none;stroke-opacity:1" /></g></svg>