<?xml version="1.0" encoding="UTF-8" standalone="no"?>
<!-- Generator: Adobe Illustrator 19.0.0, SVG Export Plug-In . SVG Version: 6.00 Build 0)  -->

<svg
   xmlns:dc="http://purl.org/dc/elements/1.1/"
   xmlns:cc="http://creativecommons.org/ns#"
   xmlns:rdf="http://www.w3.org/1999/02/22-rdf-syntax-ns#"
   xmlns:svg="http://www.w3.org/2000/svg"
   xmlns="http://www.w3.org/2000/svg"
   xmlns:sodipodi="http://sodipodi.sourceforge.net/DTD/sodipodi-0.dtd"
   xmlns:inkscape="http://www.inkscape.org/namespaces/inkscape"
   version="1.1"
   id="Layer_1"
   x="0px"
   y="0px"
   viewBox="0 0 511.998 511.998"
   style="enable-background:new 0 0 511.998 511.998;"
   xml:space="preserve"
   sodipodi:docname="disabled.svg"
   inkscape:version="0.92.1 r15371"><metadata
     id="metadata4550"><rdf:RDF><cc:Work
         rdf:about=""><dc:format>image/svg+xml</dc:format><dc:type
           rdf:resource="http://purl.org/dc/dcmitype/StillImage" /></cc:Work></rdf:RDF></metadata><defs
     id="defs4548" /><sodipodi:namedview
     pagecolor="#ffffff"
     bordercolor="#666666"
     borderopacity="1"
     objecttolerance="10"
     gridtolerance="10"
     guidetolerance="10"
     inkscape:pageopacity="0"
     inkscape:pageshadow="2"
     inkscape:window-width="1366"
     inkscape:window-height="705"
     id="namedview4546"
     showgrid="false"
     inkscape:zoom="0.37150874"
     inkscape:cx="495.55914"
     inkscape:cy="215.09277"
     inkscape:window-x="-8"
     inkscape:window-y="-8"
     inkscape:window-maximized="1"
     inkscape:current-layer="Layer_1" /><path
     style="fill:#515151;fill-opacity:1"
     d="M505.999,261.997c0-12.771-6.304-24.066-15.963-30.962c7.534-9.171,10.686-21.715,7.364-34.046  c-3.422-12.702-12.889-22.162-24.47-26.114c5.287-11.035,5.162-24.418-1.515-35.754c-6.174-10.484-16.597-16.906-27.791-18.392  c1.365-11.207-2.243-22.906-10.846-31.51c-8.602-8.603-20.301-12.212-31.509-10.845c-1.484-11.194-7.908-21.619-18.394-27.792  c-11.335-6.676-24.717-6.802-35.752-1.515c-3.952-11.582-13.409-21.049-26.114-24.469c-12.333-3.321-24.878-0.171-34.048,7.362  c-6.895-9.66-18.189-15.962-30.962-15.962c-12.773,0-24.067,6.302-30.963,15.962c-9.168-7.533-21.713-10.682-34.046-7.362  c-12.704,3.421-22.163,12.888-26.114,24.467c-11.035-5.284-24.418-5.157-35.752,1.517c-10.487,6.173-16.91,16.597-18.394,27.79  c-11.208-1.364-22.907,2.245-31.51,10.848c-8.603,8.602-12.212,20.303-10.845,31.51c-11.194,1.486-21.617,7.908-27.791,18.392  c-6.677,11.336-6.803,24.718-1.515,35.754c-11.582,3.952-21.049,13.412-24.471,26.114c-3.322,12.331-0.171,24.876,7.363,34.046  c-9.659,6.896-15.963,18.188-15.963,30.962c0,12.773,6.306,24.067,15.965,30.963c-7.535,9.171-10.687,21.714-7.364,34.049  c3.42,12.701,12.888,22.16,24.469,26.113c-5.285,11.035-5.158,24.418,1.518,35.754c6.173,10.482,16.596,16.904,27.787,18.389  c-1.364,11.208,2.245,22.91,10.846,31.512c8.603,8.604,20.303,12.212,31.511,10.845c1.485,11.193,7.908,21.617,18.392,27.792  c11.336,6.676,24.716,6.802,35.754,1.516c3.952,11.58,13.411,21.049,26.113,24.469c12.335,3.323,24.879,0.171,34.05-7.362  c6.895,9.659,18.188,15.96,30.959,15.96c12.773,0,24.066-6.302,30.961-15.962c9.171,7.535,21.716,10.686,34.05,7.364  c12.703-3.421,22.162-12.889,26.114-24.469c11.037,5.285,24.418,5.158,35.754-1.516c10.484-6.175,16.906-16.599,18.392-27.792  c11.208,1.364,22.907-2.243,31.509-10.845c8.602-8.603,12.211-20.304,10.846-31.51c11.193-1.485,21.617-7.909,27.79-18.391  c6.678-11.336,6.804-24.718,1.518-35.754c11.582-3.953,21.049-13.412,24.468-26.113c3.324-12.336,0.171-24.878-7.364-34.049  C499.696,286.065,505.999,274.772,505.999,261.997z"
     id="path4485" /><path
     style="fill:#b1b1b1;fill-opacity:1"
     d="M6.489,228.986c19.607,33.957,51.686,33.957,71.289,0c19.604-33.959,51.688-33.959,71.29,0  c19.601,33.957,51.681,33.957,71.289,0c19.604-33.959,51.684-33.959,71.287,0c19.61,33.957,51.686,33.957,71.292,0  c19.604-33.959,51.686-33.959,71.289,0c19.604,33.957,51.686,33.957,71.289,0h0.02c5.31-10.796,6.633-23.296,3.45-35.117  C505.698,181.673,462.722,0,255.998,0C49.273,0,6.298,181.675,3.012,193.869c-3.183,11.823-1.861,24.323,3.449,35.117H6.489z"
     id="path4487" /><path
     style="fill:#cacaca;fill-opacity:1"
     d="M350.796,151.864h-33.859c-4.629,0-8.379-3.751-8.379-8.379s3.751-8.379,8.379-8.379h33.859  c4.629,0,8.379,3.752,8.379,8.379C359.175,148.112,355.423,151.864,350.796,151.864z"
     id="path4495" /><path
     style="fill:#515151;fill-opacity:1"
     d="m 349.691,80.928 c -4.629,0 -8.379,3.751 -8.379,8.379 0,4.106 -3.34,7.445 -7.445,7.445 -4.106,0 -7.445,-3.34 -7.445,-7.445 0,-4.629 -3.752,-8.379 -8.379,-8.379 -4.629,0 -8.379,3.751 -8.379,8.379 0,13.346 10.859,24.204 24.204,24.204 13.345,0 24.204,-10.859 24.204,-24.204 -0.002,-4.627 -3.752,-8.379 -8.381,-8.379 z"
     id="path4497"
     inkscape:connector-curvature="0" /><path
     style="fill:#cacaca;fill-opacity:1"
     d="M195.059,151.864H161.2c-4.629,0-8.379-3.751-8.379-8.379s3.751-8.379,8.379-8.379h33.859  c4.629,0,8.379,3.752,8.379,8.379C203.438,148.112,199.688,151.864,195.059,151.864z"
     id="path4499" /><path
     style="fill:#515151;fill-opacity:1"
     d="m 193.955,80.928 c -4.629,0 -8.379,3.751 -8.379,8.379 0,4.106 -3.34,7.445 -7.445,7.445 -4.106,0 -7.445,-3.34 -7.445,-7.445 0,-4.629 -3.751,-8.379 -8.379,-8.379 -4.629,0 -8.379,3.751 -8.379,8.379 0,13.346 10.859,24.204 24.204,24.204 13.346,0 24.204,-10.858 24.204,-24.204 -0.001,-4.627 -3.753,-8.379 -8.381,-8.379 z"
     id="path4501"
     inkscape:connector-curvature="0" /><g
     id="g4513"
     style="fill:#b1b1b1;fill-opacity:1"><circle
       style="fill:#b1b1b1;fill-opacity:1"
       cx="110.127"
       cy="338.09601"
       r="15.829"
       id="circle4503" /><circle
       style="fill:#b1b1b1;fill-opacity:1"
       cx="181.028"
       cy="421.91299"
       r="15.829"
       id="circle4505" /><circle
       style="fill:#b1b1b1;fill-opacity:1"
       cx="165.19701"
       cy="353.91599"
       r="15.829"
       id="circle4507" /><circle
       style="fill:#b1b1b1;fill-opacity:1"
       cx="421.64301"
       cy="308.879"
       r="15.829"
       id="circle4509" /><circle
       style="fill:#b1b1b1;fill-opacity:1"
       cx="388.95099"
       cy="384.60699"
       r="15.829"
       id="circle4511" /></g><g
     id="g4515" /><g
     id="g4517" /><g
     id="g4519" /><g
     id="g4521" /><g
     id="g4523" /><g
     id="g4525" /><g
     id="g4527" /><g
     id="g4529" /><g
     id="g4531" /><g
     id="g4533" /><g
     id="g4535" /><g
     id="g4537" /><g
     id="g4539" /><g
     id="g4541" /><g
     id="g4543" /><path
     style="fill:none;fill-rule:evenodd;stroke:#515151;stroke-width:15.11811024;stroke-linecap:round;stroke-linejoin:miter;stroke-opacity:1;stroke-miterlimit:4;stroke-dasharray:none"
     d="M 240.23661,130.10925 H 270.855"
     id="path4595"
     inkscape:connector-curvature="0"
     sodipodi:nodetypes="cc" /></svg>