<?xml version="1.0" encoding="UTF-8" standalone="no"?>
<!-- Generator: Adobe Illustrator 19.0.0, SVG Export Plug-In . SVG Version: 6.00 Build 0)  -->

<svg
   xmlns:dc="http://purl.org/dc/elements/1.1/"
   xmlns:cc="http://creativecommons.org/ns#"
   xmlns:rdf="http://www.w3.org/1999/02/22-rdf-syntax-ns#"
   xmlns:svg="http://www.w3.org/2000/svg"
   xmlns="http://www.w3.org/2000/svg"
   xmlns:sodipodi="http://sodipodi.sourceforge.net/DTD/sodipodi-0.dtd"
   xmlns:inkscape="http://www.inkscape.org/namespaces/inkscape"
   version="1.1"
   id="Layer_1"
   x="0px"
   y="0px"
   viewBox="0 0 511.998 511.998"
   style="enable-background:new 0 0 511.998 511.998;"
   xml:space="preserve"
   sodipodi:docname="284787.svg"
   inkscape:version="0.92.1 r15371"><metadata
     id="metadata4662"><rdf:RDF><cc:Work
         rdf:about=""><dc:format>image/svg+xml</dc:format><dc:type
           rdf:resource="http://purl.org/dc/dcmitype/StillImage" /></cc:Work></rdf:RDF></metadata><defs
     id="defs4660" /><sodipodi:namedview
     pagecolor="#ffffff"
     bordercolor="#666666"
     borderopacity="1"
     objecttolerance="10"
     gridtolerance="10"
     guidetolerance="10"
     inkscape:pageopacity="0"
     inkscape:pageshadow="2"
     inkscape:window-width="1366"
     inkscape:window-height="705"
     id="namedview4658"
     showgrid="false"
     inkscape:zoom="0.23046966"
     inkscape:cx="-218.7429"
     inkscape:cy="196.82627"
     inkscape:window-x="-8"
     inkscape:window-y="-8"
     inkscape:window-maximized="1"
     inkscape:current-layer="Layer_1" /><path
     style="fill:#866539;"
     d="M505.999,261.997c0-12.771-6.304-24.066-15.963-30.962c7.534-9.171,10.686-21.715,7.364-34.046  c-3.422-12.702-12.889-22.162-24.47-26.114c5.287-11.035,5.162-24.418-1.515-35.754c-6.174-10.484-16.597-16.906-27.791-18.392  c1.365-11.207-2.243-22.906-10.846-31.51c-8.602-8.603-20.301-12.212-31.509-10.845c-1.484-11.194-7.908-21.619-18.394-27.792  c-11.335-6.676-24.717-6.802-35.752-1.515c-3.952-11.582-13.409-21.049-26.114-24.469c-12.333-3.321-24.878-0.171-34.048,7.362  c-6.895-9.66-18.189-15.962-30.962-15.962c-12.773,0-24.067,6.302-30.963,15.962c-9.168-7.533-21.713-10.682-34.046-7.362  c-12.704,3.421-22.163,12.888-26.114,24.467c-11.035-5.284-24.418-5.157-35.752,1.517c-10.487,6.173-16.91,16.597-18.394,27.79  c-11.208-1.364-22.907,2.245-31.51,10.848c-8.603,8.602-12.212,20.303-10.845,31.51c-11.194,1.486-21.617,7.908-27.791,18.392  c-6.677,11.336-6.803,24.718-1.515,35.754c-11.582,3.952-21.049,13.412-24.471,26.114c-3.322,12.331-0.171,24.876,7.363,34.046  c-9.659,6.896-15.963,18.188-15.963,30.962c0,12.773,6.306,24.067,15.965,30.963c-7.535,9.171-10.687,21.714-7.364,34.049  c3.42,12.701,12.888,22.16,24.469,26.113c-5.285,11.035-5.158,24.418,1.518,35.754c6.173,10.482,16.596,16.904,27.787,18.389  c-1.364,11.208,2.245,22.91,10.846,31.512c8.603,8.604,20.303,12.212,31.511,10.845c1.485,11.193,7.908,21.617,18.392,27.792  c11.336,6.676,24.716,6.802,35.754,1.516c3.952,11.58,13.411,21.049,26.113,24.469c12.335,3.323,24.879,0.171,34.05-7.362  c6.895,9.659,18.188,15.96,30.959,15.96c12.773,0,24.066-6.302,30.961-15.962c9.171,7.535,21.716,10.686,34.05,7.364  c12.703-3.421,22.162-12.889,26.114-24.469c11.037,5.285,24.418,5.158,35.754-1.516c10.484-6.175,16.906-16.599,18.392-27.792  c11.208,1.364,22.907-2.243,31.509-10.845c8.602-8.603,12.211-20.304,10.846-31.51c11.193-1.485,21.617-7.909,27.79-18.391  c6.678-11.336,6.804-24.718,1.518-35.754c11.582-3.953,21.049-13.412,24.468-26.113c3.324-12.336,0.171-24.878-7.364-34.049  C499.696,286.065,505.999,274.772,505.999,261.997z"
     id="path4597" /><path
     style="fill:#ef462f;fill-opacity:1"
     d="M6.489,228.986c19.607,33.957,51.686,33.957,71.289,0c19.604-33.959,51.688-33.959,71.29,0  c19.601,33.957,51.681,33.957,71.289,0c19.604-33.959,51.684-33.959,71.287,0c19.61,33.957,51.686,33.957,71.292,0  c19.604-33.959,51.686-33.959,71.289,0c19.604,33.957,51.686,33.957,71.289,0h0.02c5.31-10.796,6.633-23.296,3.45-35.117  C505.698,181.673,462.722,0,255.998,0C49.273,0,6.298,181.675,3.012,193.869c-3.183,11.823-1.861,24.323,3.449,35.117H6.489z"
     id="path4599" /><g
     id="g4605"><path
       style="fill:#3F4963;"
       d="M240.262,138.398c-13.298,0-24.117-10.817-24.117-24.113c0-4.629,3.751-8.379,8.379-8.379   s8.379,3.751,8.379,8.379c0,4.055,3.3,7.354,7.358,7.354c4.057,0,7.356-3.299,7.356-7.354c0-4.629,3.751-8.379,8.379-8.379   c4.629,0,8.379,3.751,8.379,8.379C264.377,127.58,253.559,138.398,240.262,138.398z"
       id="path4601" /><path
       style="fill:#3F4963;"
       d="M271.734,138.398c-13.297,0-24.115-10.817-24.115-24.113c0-4.629,3.751-8.379,8.379-8.379   c4.629,0,8.379,3.751,8.379,8.379c0,4.055,3.299,7.354,7.356,7.354s7.356-3.299,7.356-7.354c0-4.629,3.751-8.379,8.379-8.379   s8.379,3.751,8.379,8.379C295.849,127.58,285.03,138.398,271.734,138.398z"
       id="path4603" /></g><path
     style="fill:#FF9596;"
     d="M350.796,151.864h-33.859c-4.629,0-8.379-3.751-8.379-8.379s3.751-8.379,8.379-8.379h33.859  c4.629,0,8.379,3.752,8.379,8.379C359.175,148.112,355.423,151.864,350.796,151.864z"
     id="path4607" /><path
     style="fill:#3F4963;"
     d="M349.691,113.511c-4.629,0-8.379-3.751-8.379-8.379c0-4.106-3.34-7.445-7.445-7.445  c-4.106,0-7.445,3.34-7.445,7.445c0,4.629-3.752,8.379-8.379,8.379c-4.629,0-8.379-3.751-8.379-8.379  c0-13.346,10.859-24.204,24.204-24.204s24.204,10.859,24.204,24.204C358.07,109.759,354.32,113.511,349.691,113.511z"
     id="path4609" /><path
     style="fill:#FF9596;"
     d="M195.059,151.864H161.2c-4.629,0-8.379-3.751-8.379-8.379s3.751-8.379,8.379-8.379h33.859  c4.629,0,8.379,3.752,8.379,8.379C203.438,148.112,199.688,151.864,195.059,151.864z"
     id="path4611" /><path
     style="fill:#3F4963;"
     d="M193.955,113.511c-4.629,0-8.379-3.751-8.379-8.379c0-4.106-3.34-7.445-7.445-7.445  c-4.106,0-7.445,3.34-7.445,7.445c0,4.629-3.751,8.379-8.379,8.379c-4.629,0-8.379-3.751-8.379-8.379  c0-13.346,10.859-24.204,24.204-24.204c13.346,0,24.204,10.858,24.204,24.204C202.335,109.759,198.583,113.511,193.955,113.511z"
     id="path4613" /><g
     id="g4625"><circle
       style="fill:#CF9945;"
       cx="110.127"
       cy="338.096"
       r="15.829"
       id="circle4615" /><circle
       style="fill:#CF9945;"
       cx="181.028"
       cy="421.913"
       r="15.829"
       id="circle4617" /><circle
       style="fill:#CF9945;"
       cx="165.197"
       cy="353.916"
       r="15.829"
       id="circle4619" /><circle
       style="fill:#CF9945;"
       cx="421.643"
       cy="308.879"
       r="15.829"
       id="circle4621" /><circle
       style="fill:#CF9945;"
       cx="388.951"
       cy="384.607"
       r="15.829"
       id="circle4623" /></g><g
     id="g4627" /><g
     id="g4629" /><g
     id="g4631" /><g
     id="g4633" /><g
     id="g4635" /><g
     id="g4637" /><g
     id="g4639" /><g
     id="g4641" /><g
     id="g4643" /><g
     id="g4645" /><g
     id="g4647" /><g
     id="g4649" /><g
     id="g4651" /><g
     id="g4653" /><g
     id="g4655" /></svg>